<svg xmlns="http://www.w3.org/2000/svg" xmlns:xlink="http://www.w3.org/1999/xlink" width="826.5" height="130" viewBox="0 0 826.5 130">
  <defs>
    <linearGradient id="linear-gradient" y1="0.692" x2="2.292" y2="0.5" gradientUnits="objectBoundingBox">
      <stop offset="0" stop-color="#8e2c48"/>
      <stop offset="1" stop-color="#e4d2d7"/>
    </linearGradient>
  </defs>
  <g id="Group_354" data-name="Group 354" transform="translate(1.896)">
    <g id="Group_338" data-name="Group 338">
      <g id="Group_339" data-name="Group 339">
        <g id="Group_339-2" data-name="Group 339" transform="translate(448.604 0)">
          <rect id="Rectangle_314" data-name="Rectangle 314" width="376" height="130" fill="#8e2c48"/>
          <path id="Union_3" data-name="Union 3" d="M0,21.638V0H6.181V8.376H285.317l22.9,2.353-22.9,2.356L6.181,14.537v7.1Z" transform="translate(31.21 89.088)" fill="#f3eaec" stroke="#f3eaec" stroke-linejoin="round" stroke-width="1"/>
          <path id="Path_5" data-name="Path 5" d="M-77.991-131.886a32.9,32.9,0,0,1-7.415-.9,39.453,39.453,0,0,1-7.354-2.464v-6.61c5.2,2.79,10.047,4.206,14.4,4.206a9.749,9.749,0,0,0,5.9-1.623,5.253,5.253,0,0,0,2.194-4.446,4.944,4.944,0,0,0-1.2-3.4,8.811,8.811,0,0,0-3.028-2.164c-1.2-.536-2.877-1.173-4.974-1.893a51.366,51.366,0,0,1-6.486-2.642,12.344,12.344,0,0,1-4.231-3.578,9.632,9.632,0,0,1-1.763-5.98,10.45,10.45,0,0,1,3.987-8.625c2.644-2.093,6.27-3.154,10.779-3.154a28.989,28.989,0,0,1,6.3.69,25.374,25.374,0,0,1,5.747,2.015v6.432a25.118,25.118,0,0,0-11.985-3.367,10.667,10.667,0,0,0-5.9,1.412,4.436,4.436,0,0,0-2.13,3.878,4.2,4.2,0,0,0,1.112,2.945,8.393,8.393,0,0,0,2.811,1.953c1.126.5,2.652,1.077,4.665,1.772a55.667,55.667,0,0,1,6.734,2.767,12.994,12.994,0,0,1,4.479,3.816,10.656,10.656,0,0,1,1.946,6.4,11.474,11.474,0,0,1-3.984,9.166C-70.042-133.029-73.607-131.886-77.991-131.886Zm-83.653,0a22.738,22.738,0,0,1-11.368-2.675,17.42,17.42,0,0,1-7.106-7.543,25.564,25.564,0,0,1-2.408-11.419,25.3,25.3,0,0,1,2.438-11.419,17.553,17.553,0,0,1,7.167-7.543,22.88,22.88,0,0,1,11.4-2.675,28.988,28.988,0,0,1,6.3.69,20.652,20.652,0,0,1,5.56,2.074v6.61h-.247a18.467,18.467,0,0,0-5.16-2.583,19.294,19.294,0,0,0-6.022-.963c-4.632,0-8.219,1.406-10.659,4.179s-3.675,6.684-3.675,11.63,1.216,8.858,3.614,11.63,5.944,4.176,10.534,4.176a19.091,19.091,0,0,0,6.055-.99,18.14,18.14,0,0,0,5.313-2.8h.247v6.613A23.4,23.4,0,0,1-161.644-131.886Zm-162.242-.719h0l-6.669,0v-13.569l6.672-7.736v.028l18.1-20.556h8.157l-16.125,18.213,17.3,23.615-8.337,0L-318.325-151l-5.561,6.25V-132.6Zm299.336,0H-51.3V-171.3l6.672,6.491v8.279h18.719v5.588H-44.628v12.382H-24.55v5.95Zm-75.621,0h-6.981l-3.956-10.337h-14.908l2.182-5.531h10.565l-5.211-13.569,3.38-8.565,14.927,38Zm-34.887,0h-6.385l16.434-41.832h6.458l-2.376,6.021-.356.9-13.774,34.906Zm-67.055,0h-6.672v-31.555h6.672v31.555Zm-29.656,0h-6.672V-174.44h6.672v41.832Zm-20.326,0h-5.249l-29.965-41.633v-.2h6.672l21.869,30.113V-174.44h6.672v41.832Zm-28.542,0h-6.672v-33.775l6.672,9.271v24.5Zm-49.921-20.583v-21.25h6.672v13.514l-6.667,7.73Zm306.009-15.3h-17.31l-6.116-5.95H-24.55v5.95Zm-164.9-.179h-32v-5.772h32v5.772Z" transform="translate(361.768 205.519)" fill="#f3eaec"/>
        </g>
        <g id="logo" transform="translate(-1.396 31.863)" opacity="0.6">
          <g id="Group_1" data-name="Group 1">
            <path id="Path_5-2" data-name="Path 5" d="M-71.466-134.3a36.528,36.528,0,0,1-7.606-.853,42.934,42.934,0,0,1-7.544-2.327v-6.242c5.339,2.634,10.306,3.972,14.768,3.972a10.642,10.642,0,0,0,6.052-1.532,4.839,4.839,0,0,0,2.25-4.2,4.451,4.451,0,0,0-1.235-3.208,9.059,9.059,0,0,0-3.106-2.043c-1.234-.506-2.951-1.107-5.1-1.788a55.358,55.358,0,0,1-6.654-2.5,12.46,12.46,0,0,1-4.341-3.379,8.6,8.6,0,0,1-1.808-5.647,9.579,9.579,0,0,1,4.09-8.145c2.712-1.976,6.432-2.978,11.057-2.978a32.2,32.2,0,0,1,6.466.651,27.555,27.555,0,0,1,5.9,1.9v6.074a27.479,27.479,0,0,0-12.3-3.18,11.694,11.694,0,0,0-6.055,1.333,4.121,4.121,0,0,0-2.185,3.663,3.792,3.792,0,0,0,1.141,2.781,8.654,8.654,0,0,0,2.883,1.844c1.155.47,2.721,1.017,4.786,1.673a59.969,59.969,0,0,1,6.908,2.613,13.107,13.107,0,0,1,4.595,3.6,9.519,9.519,0,0,1,2,6.043A10.471,10.471,0,0,1-60.6-137.5C-63.312-135.375-66.969-134.3-71.466-134.3Zm-85.814,0a24.964,24.964,0,0,1-11.662-2.526,17.106,17.106,0,0,1-7.29-7.123,22.535,22.535,0,0,1-2.47-10.783,22.313,22.313,0,0,1,2.5-10.783,17.254,17.254,0,0,1,7.352-7.123,25.122,25.122,0,0,1,11.693-2.526,32.2,32.2,0,0,1,6.466.651,22.356,22.356,0,0,1,5.7,1.959v6.242h-.254a19.624,19.624,0,0,0-5.293-2.439,21.358,21.358,0,0,0-6.177-.909c-4.752,0-8.431,1.328-10.935,3.946s-3.77,6.312-3.77,10.982,1.247,8.365,3.708,10.982,6.1,3.943,10.806,3.943a21.128,21.128,0,0,0,6.212-.935,19.2,19.2,0,0,0,5.45-2.641h.254v6.245A25.649,25.649,0,0,1-157.281-134.3Zm-166.433-.679h0l-6.842,0v-12.814l6.845-7.3v.027l18.57-19.411h8.368l-16.542,17.2,17.742,22.3-8.553,0-13.881-17.367-5.7,5.9v11.468Zm307.069,0H-44.087v-36.535l6.845,6.13v7.818h19.2v5.277h-19.2V-140.6h20.6v5.619Zm-77.575,0h-7.161l-4.059-9.762h-15.293l2.239-5.223h10.838L-113-162.775l3.467-8.088,15.313,35.882Zm-35.788,0h-6.55l16.858-39.5h6.625l-2.437,5.686-.366.853-14.129,32.963Zm-68.787,0h-6.845v-29.8h6.845v29.8Zm-30.423,0h-6.845v-39.5h6.845v39.5Zm-20.851,0h-5.385l-30.739-39.315v-.188h6.845l22.434,28.437V-174.48h6.845v39.5Zm-29.279,0h-6.845v-31.894l6.845,8.755v23.139Zm-51.211-19.437V-174.48h6.845v12.761l-6.839,7.3Zm313.914-14.448H-34.4l-6.274-5.619h24.031v5.619ZM-185.8-169.03h-32.83v-5.45h32.83v5.45Z" transform="translate(330.558 175.16)" stroke="rgba(0,0,0,0)" stroke-width="1" fill="url(#linear-gradient)"/>
          </g>
          <path id="Union_1" data-name="Union 1" d="M0,20.433V0H6.337V7.91H292.521L316,10.132l-23.479,2.225L6.337,13.728v6.705Z" transform="translate(0 55.567)" fill="#8e2c48" stroke="#8e2c48" stroke-linejoin="round" stroke-width="1"/>
        </g>
      </g>
    </g>
  </g>
</svg>
