<svg xmlns="http://www.w3.org/2000/svg" width="743" height="538" viewBox="0 0 743 538">
  <g id="Group_527" data-name="Group 527" transform="translate(-353 -4286)">
    <g id="Subtraction_1" data-name="Subtraction 1" transform="translate(-330 1030)" fill="none">
      <path d="M1423,3639H914a3.007,3.007,0,0,0,3-3V3528h503a3,3,0,0,0,3-3V3331a3,3,0,0,0-3-3H869v-3h554a3,3,0,0,1,3,3v308A3,3,0,0,1,1423,3639Z" stroke="none"/>
      <path d="M 1422.999877929688 3636.000244140625 L 1422.997924804688 3636.000244140625 C 1422.998657226563 3635.99951171875 1422.999389648438 3635.9990234375 1423 3636.000244140625 L 1423 3530.194580078125 C 1422.116821289063 3530.70654296875 1421.092041015625 3530.999755859375 1419.999755859375 3530.999755859375 L 920.00048828125 3530.999755859375 L 920.00048828125 3636.000244140625 L 1422.999877929688 3636.000244140625 M 1422.999877929688 3639.000244140625 L 913.99951171875 3639.000244140625 C 915.654296875 3638.99755859375 917.00048828125 3637.652587890625 917.00048828125 3636.000244140625 L 917.00048828125 3527.999755859375 L 1419.999755859375 3527.999755859375 C 1421.654541015625 3527.999755859375 1423.000732421875 3526.65380859375 1423.000732421875 3524.99951171875 L 1423.000732421875 3330.99951171875 C 1423.000732421875 3329.345703125 1421.654541015625 3328.000244140625 1419.999755859375 3328.000244140625 L 869 3328.000244140625 L 869 3325.000244140625 L 1422.999877929688 3325.000244140625 C 1424.654174804688 3325.000244140625 1426 3326.345947265625 1426 3328.000244140625 L 1426 3636.000244140625 C 1426 3637.654541015625 1424.654174804688 3639.000244140625 1422.999877929688 3639.000244140625 Z" stroke="none" fill="rgba(142,44,72,0.24)"/>
    </g>
    <g id="Group_525" data-name="Group 525" transform="translate(261 -2)">
      <g id="Group_519" data-name="Group 519" transform="translate(-110 10)">
        <g id="Group_517" data-name="Group 517" transform="translate(43 -14)">
          <rect id="Rectangle_344" data-name="Rectangle 344" width="146" height="132" rx="3" transform="translate(202 4292)" fill="#faf6f7"/>
          <g id="Group_516" data-name="Group 516" transform="translate(224.5 4316)">
            <text id="Discover" transform="translate(0.5 22)" fill="rgba(67,50,55,0.4)" font-size="24" font-family="Amiko-Bold, Amiko" font-weight="700" letter-spacing="-0.01em"><tspan x="0" y="0">Discover</tspan></text>
            <path id="Icon_open-magnifying-glass" data-name="Icon open-magnifying-glass" d="M15.75,0a15.75,15.75,0,0,0,0,31.5,15.567,15.567,0,0,0,7.47-1.845,4.5,4.5,0,0,0,.585.585l4.5,4.5a4.59,4.59,0,1,0,6.48-6.48l-4.5-4.5a4.5,4.5,0,0,0-.72-.585,15.538,15.538,0,0,0,1.98-7.47A15.767,15.767,0,0,0,15.8-.045Zm0,4.5A11.2,11.2,0,0,1,27,15.75a11.284,11.284,0,0,1-2.97,7.74l-.135.135a4.5,4.5,0,0,0-.585.585,11.26,11.26,0,0,1-7.6,2.835,11.25,11.25,0,0,1,0-22.5Z" transform="translate(32.674 47.719)" fill="#8e2c48"/>
          </g>
        </g>
        <text id="Research_and_evaluate_similar_apps_on_the_market" data-name="Research and evaluate similar apps on the market" transform="translate(202 4434)" fill="#433237" font-size="18" font-family="Inter-Regular, Inter"><tspan x="0" y="17">Research and evaluate </tspan><tspan x="0" y="43">similar apps on the market</tspan></text>
      </g>
      <g id="Group_520" data-name="Group 520" transform="translate(-196 10)">
        <g id="Group_518" data-name="Group 518" transform="translate(369 -14)">
          <rect id="Rectangle_344-2" data-name="Rectangle 344" width="146" height="132" rx="3" transform="translate(202 4292)" fill="#faf6f7"/>
          <g id="Group_516-2" data-name="Group 516" transform="translate(224.5 4316)">
            <text id="Define" transform="translate(12.5 22)" fill="rgba(67,50,55,0.4)" font-size="24" font-family="Amiko-Bold, Amiko" font-weight="700" letter-spacing="-0.01em"><tspan x="0" y="0">Define</tspan></text>
            <path id="Icon_simple-pinboard" data-name="Icon simple-pinboard" d="M17.305,23.7l7.328,7.5-1.17-6.6,9.971-12.3L39,12.6,26.686,0V4.8L14.962,15.6,7.627,13.8l7.621,8.1L0,39,17.305,23.7Z" transform="translate(30.5 46.334)" fill="#8e2c48"/>
          </g>
        </g>
        <text id="Narrow_down_aims_and_define_user_flows" data-name="Narrow down aims and define user flows" transform="translate(542 4434)" fill="#433237" font-size="18" font-family="Inter-Regular, Inter"><tspan x="0" y="17">Narrow down aims and </tspan><tspan x="0" y="43">define user flows</tspan></text>
      </g>
      <g id="Group_526" data-name="Group 526" transform="translate(25 15)">
        <g id="Group_521" data-name="Group 521" transform="translate(-364 304)">
          <g id="Group_522" data-name="Group 522" transform="translate(628 -14)">
            <path id="Path_463" data-name="Path 463" d="M3,0H143a3,3,0,0,1,3,3V129a3,3,0,0,1-3,3H3a3,3,0,0,1-3-3V3A3,3,0,0,1,3,0Z" transform="translate(206 4292)" fill="#faf6f7"/>
            <g id="Group_516-3" data-name="Group 516" transform="translate(224.5 4316)">
              <text id="Prototype" transform="translate(-4.5 22)" fill="rgba(67,50,55,0.4)" font-size="24" font-family="Amiko-Bold, Amiko" font-weight="700" letter-spacing="-0.01em"><tspan x="0" y="0">Prototype</tspan></text>
              <path id="Icon_awesome-person-booth" data-name="Icon awesome-person-booth" d="M17.111,16.445s1.8.041,4.021,0V11.262H17.111Zm2.467,2.586H15.13l-3.951-3.959a5.554,5.554,0,0,0-3.951-1.634H5.594A5.6,5.6,0,0,0,0,19.04l.017,8.382L0,41.407a2.793,2.793,0,1,0,5.585,0l.009-8.8c.079.044.14.114.219.149l2.543,3.758v4.895a2.8,2.8,0,1,0,5.594,0V36.469a5.618,5.618,0,0,0-.586-2.5l-3.6-5.358V21.566l1.827,1.827a4.159,4.159,0,0,0,2.963,1.232h5.026a2.8,2.8,0,0,0,0-5.594ZM5.594,10.641a4.2,4.2,0,1,0-4.2-4.2A4.2,4.2,0,0,0,5.594,10.641Z" transform="translate(45.5 39.796)" fill="#8e2c48"/>
            </g>
          </g>
          <text id="Test_and_gather_feedback_" data-name="Test and gather feedback " transform="translate(797 4434)" fill="#433237" font-size="18" font-family="Inter-Regular, Inter"><tspan x="0" y="17">Test and gather feedback </tspan></text>
        </g>
        <g id="Group_524" data-name="Group 524" transform="translate(-599 304)">
          <g id="Group_522-2" data-name="Group 522" transform="translate(624 -14)">
            <rect id="Rectangle_344-3" data-name="Rectangle 344" width="146" height="132" rx="3" transform="translate(202 4292)" fill="#faf6f7"/>
            <g id="Group_516-4" data-name="Group 516" transform="translate(224.5 4316)">
              <text id="Refine" transform="translate(13.5 22)" fill="rgba(67,50,55,0.4)" font-size="24" font-family="Amiko-Bold, Amiko" font-weight="700" letter-spacing="-0.01em"><tspan x="0" y="0">Refine</tspan></text>
            </g>
            <path id="Icon_ionic-ios-phone-portrait" data-name="Icon ionic-ios-phone-portrait" d="M27.278,2.25H13.087a2.944,2.944,0,0,0-2.962,2.944V39.286a3.031,3.031,0,0,0,2.962,3.051H27.269a2.972,2.972,0,0,0,2.89-3.051V5.194A2.871,2.871,0,0,0,27.278,2.25ZM18.8,4.308h2.684a.358.358,0,1,1,0,.716H18.8a.358.358,0,1,1,0-.716Zm1.387,36.687a1.557,1.557,0,1,1,1.557-1.557A1.558,1.558,0,0,1,20.191,40.995Zm8.366-4.385H11.736a.179.179,0,0,1-.179-.179V6.992a.179.179,0,0,1,.179-.179H28.558a.179.179,0,0,1,.179.179V36.431A.179.179,0,0,1,28.558,36.61Z" transform="translate(256.875 4355.75)" fill="#8e2c48"/>
          </g>
          <text id="Analyse_feedback_propose_and_implement_new_solutions" data-name="Analyse feedback, propose and implement new solutions" transform="translate(797 4434)" fill="#433237" font-size="18" font-family="Inter-Regular, Inter"><tspan x="0" y="17">Analyse feedback, </tspan><tspan x="0" y="43">propose and implement </tspan><tspan x="0" y="69">new solutions</tspan></text>
        </g>
      </g>
      <g id="Group_523" data-name="Group 523" transform="translate(50 10)">
        <g id="Group_518-2" data-name="Group 518" transform="translate(365 -14)">
          <rect id="Rectangle_344-4" data-name="Rectangle 344" width="146" height="132" rx="3" transform="translate(202 4292)" fill="#faf6f7"/>
          <g id="Group_516-5" data-name="Group 516" transform="translate(224.5 4316)">
            <text id="Ideate" transform="translate(13.5 22)" fill="rgba(67,50,55,0.4)" font-size="24" font-family="Amiko-Bold, Amiko" font-weight="700" letter-spacing="-0.01em"><tspan x="0" y="0">Ideate</tspan></text>
            <path id="Icon_metro-pencil" data-name="Icon metro-pencil" d="M28.6,1.928A4.82,4.82,0,0,1,32.455,9.64l-1.928,1.928L23.779,4.82l1.928-1.928A4.8,4.8,0,0,1,28.6,1.928ZM4.5,24.1,2.571,32.777l8.676-1.928L29.081,13.014,22.333,6.266ZM24.128,12.881l-13.5,13.5L8.97,24.716l13.5-13.5,1.662,1.662Z" transform="translate(32.929 48.484)" fill="#8e2c48"/>
          </g>
        </g>
        <text id="Sketch_out_ideas_and_develop_wireframes" data-name="Sketch out ideas and develop wireframes" transform="translate(549 4434)" fill="#433237" font-size="18" font-family="Inter-Regular, Inter"><tspan x="0" y="17">Sketch out ideas and </tspan><tspan x="0" y="43">develop wireframes</tspan></text>
      </g>
    </g>
  </g>
</svg>
