<svg xmlns="http://www.w3.org/2000/svg" width="684" height="646" viewBox="0 0 684 646">
  <g id="Overall_flow_diagram" data-name="Overall flow diagram" transform="translate(-4436.439 -2705.227)">
    <g id="Group_26" data-name="Group 26" transform="translate(4439.439 2903.712)">
      <g id="Group_20" data-name="Group 20" transform="translate(-2 399.815) rotate(-90)">
        <path id="rightEdge" d="M0,0H0L6.21,3.312,0,6.624,1.242,3.312Z" transform="translate(6.624 32.701) rotate(90)" fill="#666" stroke="#666" stroke-width="2"/>
        <path id="line" d="M0-6.411V34.5H335.625V0" transform="translate(338.936 34.496) rotate(180)" fill="none" stroke="#666" stroke-width="2"/>
      </g>
      <g id="Group_33" data-name="Group 33" transform="translate(182.979 60.878) rotate(90)">
        <path id="rightEdge-2" data-name="rightEdge" d="M0,0H0L6.21,3.312,0,6.624,1.242,3.312Z" transform="translate(6.624 13.246) rotate(90)" fill="#666" stroke="#666" stroke-width="2"/>
        <path id="line-2" data-name="line" d="M0,0V24.027H313.684V6.852" transform="translate(316.996 24.027) rotate(180)" fill="none" stroke="#666" stroke-width="2"/>
      </g>
      <g id="Group_14" data-name="Group 14" transform="translate(38.319 0)">
        <g id="Group_3" data-name="Group 3" transform="translate(0 162.281)">
          <rect id="Rectangle_1" data-name="Rectangle 1" width="124.195" height="124.195" transform="translate(0 0)" fill="rgba(176,105,126,0.24)"/>
          <g id="Group" transform="translate(24.011 34.775)">
            <text id="Search_" data-name="Search " transform="translate(0 18)" fill="#565656" font-size="19" font-family="Amiko-Regular, Amiko"><tspan x="0" y="0">Search </tspan></text>
            <text id="results" transform="translate(3.726 45.323)" fill="#565656" font-size="19" font-family="Amiko-Regular, Amiko"><tspan x="0" y="0">results</tspan></text>
          </g>
        </g>
        <g id="Group_2" data-name="Group 2" transform="translate(0 0)">
          <rect id="Rectangle_1-2" data-name="Rectangle 1" width="124.195" height="124.195" fill="rgba(176,105,126,0.24)"/>
          <text id="Patterns" transform="translate(18.629 66.436)" fill="#565656" font-size="19" font-family="Amiko-Regular, Amiko"><tspan x="0" y="0">Patterns</tspan></text>
        </g>
        <g id="Group_22" data-name="Group 22" transform="translate(58.757 124.195)">
          <path id="line-3" data-name="line" d="M0,0H33.1" transform="translate(3.34) rotate(90)" fill="none" stroke="#666" stroke-width="2"/>
          <path id="rightEdge-3" data-name="rightEdge" d="M0,0H0L6.21,3.312,0,6.624,1.242,3.312Z" transform="translate(6.624 28.679) rotate(90)" fill="#666" stroke="#666" stroke-width="2"/>
        </g>
        <g id="Group_23" data-name="Group 23" transform="translate(58.273 286.476)">
          <path id="line-4" data-name="line" d="M0,0H33.1" transform="translate(3.34) rotate(90)" fill="none" stroke="#666" stroke-width="2"/>
          <path id="rightEdge-4" data-name="rightEdge" d="M0,0H0L6.21,3.312,0,6.624,1.242,3.312Z" transform="translate(6.624 28.679) rotate(90)" fill="#666" stroke="#666" stroke-width="2"/>
        </g>
        <g id="Group_4" data-name="Group 4" transform="translate(0.828 323.32)">
          <rect id="Rectangle_1-3" data-name="Rectangle 1" width="124.195" height="124.195" transform="translate(0 0)" fill="#ecd9df"/>
          <g id="Group-2" data-name="Group" transform="translate(23.804 34.775)">
            <text id="Pattern" transform="translate(0 18)" fill="#565656" font-size="19" font-family="Amiko-Regular, Amiko"><tspan x="0" y="0">Pattern</tspan></text>
            <text id="view" transform="translate(14.489 45.323)" fill="#565656" font-size="19" font-family="Amiko-Regular, Amiko"><tspan x="0" y="0">view</tspan></text>
          </g>
        </g>
      </g>
      <g id="Group_34" data-name="Group 34" transform="translate(182.955 223.758) rotate(90)">
        <path id="rightEdge-5" data-name="rightEdge" d="M0,0H0L6.21,3.312,0,6.624,1.242,3.312Z" transform="translate(6.624 13.246) rotate(90)" fill="#666" stroke="#666" stroke-width="2"/>
        <path id="line-5" data-name="line" d="M0-5.051V17.175H150.8V0" transform="translate(154.116 17.175) rotate(180)" fill="none" stroke="#666" stroke-width="2"/>
      </g>
    </g>
    <g id="Group_25" data-name="Group 25" transform="translate(4541.172 2705)">
      <g id="Group_14-2" data-name="Group 14" transform="translate(0 0)">
        <g id="Group_1" data-name="Group 1" transform="translate(184.975)">
          <rect id="Rectangle_1-4" data-name="Rectangle 1" width="124.195" height="124.195" transform="translate(-0.208 0.227)" fill="rgba(176,105,126,0.24)"/>
          <text id="Home" transform="translate(28.792 36.227)" fill="#565656" font-size="19" font-family="Amiko-Regular, Amiko"><tspan x="0" y="18">Splash </tspan><tspan x="0" y="44">screen</tspan></text>
        </g>
        <g id="Group_27" data-name="Group 27" transform="translate(0 124.195)">
          <path id="leftEdge" transform="translate(498.318 74.601) rotate(180)" fill="none" stroke="rgba(0,0,0,0)" stroke-width="2"/>
          <path id="rightEdge-6" data-name="rightEdge" d="M0,0H0L6.21,3.312,0,6.624,1.242,3.312Z" transform="translate(6.624 64.044) rotate(90)" fill="#666" stroke="#666" stroke-width="2"/>
          <path id="line-6" data-name="line" d="M0,0V33.947H495.007V0" transform="translate(498.318 67.149) rotate(180)" fill="none" stroke="#666" stroke-width="2"/>
          <path id="rightEdge-7" data-name="rightEdge" d="M0,0H0L6.21,3.312,0,6.624,1.242,3.312Z" transform="translate(501.662 65.286) rotate(90)" fill="#666" stroke="#666" stroke-width="2"/>
          <path id="line-7" data-name="line" d="M0,0H68.933" transform="translate(247.392 0) rotate(90)" fill="none" stroke="#666" stroke-width="2"/>
          <path id="rightEdge-8" data-name="rightEdge" d="M0,0H0L6.21,3.312,0,6.624,1.242,3.312Z" transform="translate(250.46 65.286) rotate(90)" fill="#666" stroke="#666" stroke-width="2"/>
        </g>
      </g>
    </g>
    <g id="Tutorials" transform="translate(4534.031 2903.712)">
      <g id="Group_23-2" data-name="Group 23" transform="translate(250.46 286.476)">
        <path id="line-8" data-name="line" d="M0,0H33.1" transform="translate(3.34) rotate(90)" fill="none" stroke="#666" stroke-width="2"/>
        <path id="rightEdge-9" data-name="rightEdge" d="M0,0H0L6.21,3.312,0,6.624,1.242,3.312Z" transform="translate(6.624 28.679) rotate(90)" fill="#666" stroke="#666" stroke-width="2"/>
      </g>
      <g id="Group_22-2" data-name="Group 22" transform="translate(251.288 124.195)">
        <path id="line-9" data-name="line" d="M0,0H33.1" transform="translate(3.34) rotate(90)" fill="none" stroke="#666" stroke-width="2"/>
        <path id="rightEdge-10" data-name="rightEdge" d="M0,0H0L6.21,3.312,0,6.624,1.242,3.312Z" transform="translate(6.624 28.679) rotate(90)" fill="#666" stroke="#666" stroke-width="2"/>
      </g>
      <g id="Group_20-2" data-name="Group 20" transform="translate(150.97 397.331) rotate(-90)">
        <path id="rightEdge-11" data-name="rightEdge" d="M0,0H0L6.21,3.312,0,6.624,1.242,3.312Z" transform="translate(6.624 32.701) rotate(90)" fill="#666" stroke="#666" stroke-width="2"/>
        <path id="line-10" data-name="line" d="M0-8.625V34.5H331.921V0" transform="translate(335.233 34.496) rotate(180)" fill="none" stroke="#666" stroke-width="2"/>
      </g>
      <g id="Group_3-2" data-name="Group 3" transform="translate(191.703 162.281)">
        <g id="Group_34-2" data-name="Group 34" transform="translate(146.66 61.476) rotate(90)">
          <path id="rightEdge-12" data-name="rightEdge" d="M0,0H0L6.21,3.312,0,6.624,1.242,3.312Z" transform="translate(6.624 13.246) rotate(90)" fill="#666" stroke="#666" stroke-width="2"/>
          <path id="line-11" data-name="line" d="M0-5.051V17.175H150.8V0" transform="translate(154.116 17.175) rotate(180)" fill="none" stroke="#666" stroke-width="2"/>
        </g>
        <g id="Group_34-3" data-name="Group 34" transform="translate(146.66 -103.778) rotate(90)">
          <path id="rightEdge-13" data-name="rightEdge" d="M0,0H0L6.21,3.312,0,6.624,1.242,3.312Z" transform="translate(6.624 13.246) rotate(90)" fill="#666" stroke="#666" stroke-width="2"/>
          <path id="line-12" data-name="line" d="M0,0V22.226H316.059V5.051" transform="translate(319.371 22.226) rotate(180)" fill="none" stroke="#666" stroke-width="2"/>
        </g>
        <rect id="Rectangle_1-5" data-name="Rectangle 1" width="124.195" height="124.195" transform="translate(0 0)" fill="rgba(176,105,126,0.24)"/>
        <g id="Group-3" data-name="Group" transform="translate(24.011 34.775)">
          <text id="Search_2" data-name="Search " transform="translate(0 18)" fill="#565656" font-size="19" font-family="Amiko-Regular, Amiko"><tspan x="0" y="0">Search </tspan></text>
          <text id="results-2" data-name="results" transform="translate(3.726 45.323)" fill="#565656" font-size="19" font-family="Amiko-Regular, Amiko"><tspan x="0" y="0">results</tspan></text>
        </g>
      </g>
      <g id="Group_4-2" data-name="Group 4" transform="translate(192.531 323.321)">
        <rect id="Rectangle_1-6" data-name="Rectangle 1" width="124.195" height="124.195" transform="translate(0 0)" fill="rgba(176,105,126,0.24)"/>
        <g id="Group-4" data-name="Group" transform="translate(22.562 34.775)">
          <text id="Tutorial" transform="translate(0 18)" fill="#565656" font-size="19" font-family="Amiko-Regular, Amiko"><tspan x="0" y="0">Tutorial</tspan></text>
          <text id="view-2" data-name="view" transform="translate(15.731 45.323)" fill="#565656" font-size="19" font-family="Amiko-Regular, Amiko"><tspan x="0" y="0">view</tspan></text>
        </g>
      </g>
      <g id="Group_2-2" data-name="Group 2" transform="translate(191.703 0)">
        <rect id="Rectangle_1-7" data-name="Rectangle 1" width="124.195" height="124.195" transform="translate(0 0)" fill="#ecd9df"/>
        <text id="Tutorials-2" data-name="Tutorials" transform="translate(17.387 66.436)" fill="#565656" font-size="19" font-family="Amiko-Regular, Amiko"><tspan x="0" y="0">Tutorials</tspan></text>
      </g>
    </g>
    <g id="Profile" transform="translate(4973.709 2903.712)">
      <g id="Group_36" data-name="Group 36" transform="translate(145.73 223.758) rotate(90)">
        <path id="rightEdge-14" data-name="rightEdge" d="M0,0H0L6.21,3.312,0,6.624,1.242,3.312Z" transform="translate(6.624 13.246) rotate(90)" fill="#666" stroke="#666" stroke-width="2"/>
        <path id="line-13" data-name="line" d="M0-4.842V17.175H150.8V0" transform="translate(154.116 17.175) rotate(180)" fill="none" stroke="#666" stroke-width="2"/>
      </g>
      <g id="Group_36-2" data-name="Group 36" transform="translate(145.73 62.097) rotate(90)">
        <path id="rightEdge-15" data-name="rightEdge" d="M0,0H0L6.21,3.312,0,6.624,1.242,3.312Z" transform="translate(6.624 13.246) rotate(90)" fill="#666" stroke="#666" stroke-width="2"/>
        <path id="line-14" data-name="line" d="M0,0V22.017H312.465V4.842" transform="translate(315.777 22.017) rotate(180)" fill="none" stroke="#666" stroke-width="2"/>
      </g>
      <g id="Group_36-3" data-name="Group 36" transform="translate(-21.287 377.874) rotate(-90)">
        <path id="rightEdge-16" data-name="rightEdge" d="M0,0H0L6.21,3.312,0,6.624,1.242,3.312Z" transform="translate(6.624 13.246) rotate(90)" fill="#666" stroke="#666" stroke-width="2"/>
        <path id="line-15" data-name="line" d="M0,0V22.017H312.465V4.842" transform="translate(315.777 22.017) rotate(180)" fill="none" stroke="#666" stroke-width="2"/>
      </g>
      <g id="flowKitConnector" transform="translate(68.721 286.284) rotate(90)">
        <path id="line-16" data-name="line" d="M0,0H34.934" transform="translate(0 3.312)" fill="none" stroke="#666" stroke-width="2"/>
        <path id="leftEdge-2" data-name="leftEdge" transform="translate(0 3.312)" fill="none" stroke="rgba(0,0,0,0)" stroke-width="2"/>
        <path id="rightEdge-17" data-name="rightEdge" d="M0,0H0L6.21,3.312,0,6.624,1.242,3.312Z" transform="translate(28.724 0)" fill="#666" stroke="#666" stroke-width="2"/>
      </g>
      <g id="flowKitConnector-2" data-name="flowKitConnector" transform="translate(68.721 118.728) rotate(90)">
        <path id="line-17" data-name="line" d="M0,0H41.167" transform="translate(0 3.312)" fill="none" stroke="#666" stroke-width="2"/>
        <path id="leftEdge-3" data-name="leftEdge" transform="translate(0 3.312)" fill="none" stroke="rgba(0,0,0,0)" stroke-width="2"/>
        <path id="rightEdge-18" data-name="rightEdge" d="M0,0H0L6.21,3.312,0,6.624,1.242,3.312Z" transform="translate(34.957 0)" fill="#666" stroke="#666" stroke-width="2"/>
      </g>
      <g id="Group_28" data-name="Group 28" transform="translate(0 162.281)">
        <rect id="Rectangle_1-8" data-name="Rectangle 1" width="124.195" height="124.195" transform="translate(0 0)" fill="rgba(176,105,126,0.24)"/>
        <text id="Projects" transform="translate(20.492 66.436)" fill="#565656" font-size="19" font-family="Amiko-Regular, Amiko"><tspan x="0" y="0">Projects</tspan></text>
      </g>
      <g id="Group_29" data-name="Group 29" transform="translate(0 323.321)">
        <rect id="Rectangle_1-9" data-name="Rectangle 1" width="124.195" height="124.195" transform="translate(0 0)" fill="rgba(176,105,126,0.24)"/>
        <g id="Group-5" data-name="Group" transform="translate(25.667 34.775)">
          <text id="Project" transform="translate(0 18)" fill="#565656" font-size="19" font-family="Amiko-Regular, Amiko"><tspan x="0" y="0">Project</tspan></text>
          <text id="editor" transform="translate(5.589 45.323)" fill="#565656" font-size="19" font-family="Amiko-Regular, Amiko"><tspan x="0" y="0">editor</tspan></text>
        </g>
      </g>
      <g id="Group_30" data-name="Group 30" transform="translate(0 0)">
        <rect id="Rectangle_1-10" data-name="Rectangle 1" width="124.195" height="124.195" fill="rgba(176,105,126,0.24)"/>
        <text id="Profile-2" data-name="Profile" transform="translate(28.979 66.436)" fill="#565656" font-size="19" font-family="Amiko-Regular, Amiko"><tspan x="0" y="0">Profile</tspan></text>
      </g>
    </g>
  </g>
</svg>
