<svg xmlns="http://www.w3.org/2000/svg" width="558" height="558" viewBox="0 0 558 558">
  <g id="Group_5" data-name="Group 5" transform="translate(-14 -378)">
    <circle id="Ellipse_1" data-name="Ellipse 1" cx="279" cy="279" r="279" transform="translate(14 378)" fill="#4c333f"/>
    <g id="Group_3" data-name="Group 3" transform="translate(144 509)" opacity="0.7">
      <path id="Path_1" data-name="Path 1" d="M4.3,34.754Q4.3-6.36,31.8-35.748T99.266-65.137q20.557,0,68.621,13.029,1.158,33.008,1.158,35.9,0,4.343-6.08,4.343-2.9,0-3.764-1.448-7.818-39.667-59.066-39.667-28.954,0-48.353,24.611T32.382,30.99q0,32.139,21.281,59.211t53.42,27.072q25.48,0,37.64-6.37,2.027-.869,2.027-4.343l-.29-23.742V80.791q0-18.82-2.316-24.9-1.158-2.9-9.41-4.633a66.953,66.953,0,0,0-12.885-1.737q-1.158,0-1.158-3.619t1.158-4.777q37.061,1.448,37.93,1.448,2.316,0,31.27-1.448a12.832,12.832,0,0,1,.579,4.054q0,4.343-1.158,4.343-1.737,0-7.962,1.882a49.479,49.479,0,0,0-8.831,3.33c-1.93,1.351-5.212,8.038-5.212,19.62,0,4.054-.29,3.737,0,8.466s0,29.07,0,29.649c0,1.544-2.268,4.565-5.646,5.819s-5.55,2.075-6.515,2.461-3.137,1.11-6.515,2.172a76.2,76.2,0,0,1-8.107,2.172q-3.04.579-8.686,1.737a92.962,92.962,0,0,1-10.713,1.592q-5.067.434-11.871.869t-14.332.434q-38.219,0-65-28.085T4.3,34.754Z" transform="translate(-4.297 64.137)" fill="#fff"/>
      <path id="Path_3" data-name="Path 3" d="M145.564-38.76V-89.291l-.574-1.148Q118-91.014,102.5-91.014q-44.215,0-44.215,1.436v49.67q0,16.652,2.584,26.7.574,2.01,8.039,3.876T79.242-7.465q.861,0,1,3.445A13.057,13.057,0,0,1,79.816.861Q51.105-.574,46.512-.574q-1.436,0-34.453,1.436Q10.91-.287,10.91-3.445q0-4.02,1.148-4.02A53.011,53.011,0,0,0,23.112-9.187q7.321-1.723,8.183-4.02Q33.3-20.959,33.3-38.76v-111.4q0-17.8-2.01-25.553-.861-2.3-8.183-4.163a49.236,49.236,0,0,0-11.054-1.866q-1.148,0-1.148-3.732,0-3.445,1.148-4.594,3.732.287,15.217,1t19.236.718q5.742,0,11.2-.287t11.771-.718q6.316-.431,10.336-.718.574,1.148.431,4.737t-1,3.589q-2.871,0-10.336,2.01t-8.039,4.02q-2.584,10.049-2.584,26.7v42.779l.574.861q28.137.574,43.641.574,16.652,0,42.492-.574a1.654,1.654,0,0,0,.574-1.148v-43.641q0-17.8-2.01-25.553-.861-2.3-8.183-4.163a49.236,49.236,0,0,0-11.054-1.866q-1.148,0-1.148-3.589t1.148-4.737q3.445.287,15.217,1t19.523.718q5.455,0,10.91-.287t11.628-.718q6.173-.431,10.192-.718a13.8,13.8,0,0,1,.574,4.307q0,4.02-1.148,4.02-2.871,0-10.336,2.01t-8.039,4.02q-2.3,8.9-2.3,26.7v109.1q0,17.8,2.3,26.7.574,2.01,8.039,3.876t10.336,1.866q1.148,0,1.148,4.307a12.725,12.725,0,0,1-.574,4.02Q163.078-.574,159.059-.574q-1.723,0-34.74,1.436Q123.17-.287,123.17-3.876t1.148-3.589a53.011,53.011,0,0,0,11.054-1.723q7.321-1.723,8.183-4.02Q145.564-20.959,145.564-38.76Z" transform="translate(105.856 295.405)" fill="#fff"/>
    </g>
  </g>
</svg>
